<?xml version="1.0" encoding="utf-8"?>
<!-- Svg Vector Icons : http://www.onlinewebfonts.com/icon -->
<!DOCTYPE svg PUBLIC "-//W3C//DTD SVG 1.1//EN" "http://www.w3.org/Graphics/SVG/1.1/DTD/svg11.dtd">
<svg version="1.1" xmlns="http://www.w3.org/2000/svg" xmlns:xlink="http://www.w3.org/1999/xlink" x="0px" y="0px" viewBox="0 0 1000 1000" enable-background="new 0 0 1000 1000" xml:space="preserve">
<metadata> Svg Vector Icons : http://www.onlinewebfonts.com/icon </metadata>
<g><path d="M822.9,614c-20.2-44.9-143.6-83.9-143.6-83.9c-66-23.2-66.5-46.3-66.5-46.3c-6.8-6.4-13.4-11.8-20-17c30.5-32.6,53-76.8,58.8-118c4.1-3,10.9-10.1,13.4-26.3c0,0,15.7-56.3-5.1-50.2c7.2-21.6,31.4-106.2-15.2-158.7c0,0-21.9-29.8-75-45.6l-24.8-8.6c-9.8-7.1-29.4-23.8-29.4-42.4c0,0-12.3,5.7-19.6,16.2c2.8-8.6,7.6-16.7,15.3-23.2c0,0-8.1,4.2-15.6,13.1c-5.7,3.3-18.9,12.4-23.4,28.4l0.4-1c0,0-2.7-3.7-10.2-4.7c-7.3-1.1-20.1,3.8-20.1,3.8s-77.3,30.3-99.8,100c0,0-13.3,31.4,4.2,123.9c-24.9-11.7-7.9,49.1-7.9,49.1c2.5,16.3,9.3,23.4,13.5,26.3c5.1,41.7,25.8,84.2,53.4,115.8c-13.1,10.7-20.7,19.8-20.7,19.8l-142.3,74.9c-38.9,15-55.4,37.5-55.4,37.5C129.8,682.1,123,872.3,123,872.3c0.8,43.4,19.5,47.9,19.5,47.9c132.5,59.1,340.2,69.6,340.2,69.6c213.4,4.4,368.7-60.6,368.7-60.6c22.5-14.3,23.2-25.5,23.2-25.5C890.2,767.4,822.9,614,822.9,614z M493.3,26.2c-3.7,5.2-6.9,11.9-8.5,19.8L482,45C484.1,38.2,487.8,31.8,493.3,26.2z M494,934.4c-19.6,0-33.5-15.6-33.5-35.8c0-21.5,14.4-36.4,34.1-36.4c20.8,0,34,15,34,36.4C528.7,918.8,515.4,934.4,494,934.4z M550.2,716.9c-25.5,30-34.7,56-33,85.6l1.2,14.5h-45.7l-1.1-15.1c-3.5-30.6,6.9-65.3,35.8-100c26.1-30.7,40.5-53.2,40.5-79.2c0-29.5-18.6-49.2-55-49.7c-20.8,0-43.9,6.9-58.4,17.9l-13.9-36.4c19.7-14,52.1-23.2,82.7-23.2c66.5,0,96.6,41.1,96.6,85C599.9,655.6,577.9,683.9,550.2,716.9z"/></g>
</svg>