<?xml version="1.0" encoding="UTF-8" standalone="no"?>
<!-- Created with Inkscape (http://www.inkscape.org/) -->

<svg
   xmlns:dc="http://purl.org/dc/elements/1.1/"
   xmlns:cc="http://creativecommons.org/ns#"
   xmlns:rdf="http://www.w3.org/1999/02/22-rdf-syntax-ns#"
   xmlns:svg="http://www.w3.org/2000/svg"
   xmlns="http://www.w3.org/2000/svg"
   xmlns:sodipodi="http://sodipodi.sourceforge.net/DTD/sodipodi-0.dtd"
   xmlns:inkscape="http://www.inkscape.org/namespaces/inkscape"
   width="61.045559mm"
   height="42.905499mm"
   viewBox="0 0 61.045559 42.905499"
   version="1.1"
   id="svg6776"
   inkscape:version="0.92.1 r15371"
   sodipodi:docname="happy-retro-faces.svg">
  <defs
     id="defs6770" />
  <sodipodi:namedview
     id="base"
     pagecolor="#ffffff"
     bordercolor="#666666"
     borderopacity="1.0"
     inkscape:pageopacity="0.0"
     inkscape:pageshadow="2"
     inkscape:zoom="2.1208333"
     inkscape:cx="157.14286"
     inkscape:cy="85.714286"
     inkscape:document-units="mm"
     inkscape:current-layer="layer1"
     showgrid="false"
     fit-margin-top="0"
     fit-margin-left="0"
     fit-margin-right="0"
     fit-margin-bottom="0"
     inkscape:window-width="1366"
     inkscape:window-height="705"
     inkscape:window-x="-8"
     inkscape:window-y="-8"
     inkscape:window-maximized="1" />
  <metadata
     id="metadata6773">
    <rdf:RDF>
      <cc:Work
         rdf:about="">
        <dc:format>image/svg+xml</dc:format>
        <dc:type
           rdf:resource="http://purl.org/dc/dcmitype/StillImage" />
        <dc:title></dc:title>
      </cc:Work>
    </rdf:RDF>
  </metadata>
  <g
     inkscape:label="Layer 1"
     inkscape:groupmode="layer"
     id="layer1"
     transform="translate(158.27915,-82.779384)">
    <path
       inkscape:connector-curvature="0"
       style="fill:#000000;stroke-width:0.26458332"
       d="m -145.2262,82.782271 c -1.53942,0.01979 -2.11399,0.145465 -3.00754,0.446484 -1.71088,0.576339 -3.32319,1.540304 -4.56303,2.727484 -0.43887,0.420219 -1.10842,0.955995 -1.48725,1.190625 -0.37886,0.234619 -0.73607,0.545394 -0.79375,0.690912 -0.0577,0.145542 -0.19421,0.234839 -0.30335,0.198437 -0.10914,-0.0364 -0.19843,0.119364 -0.19843,0.346234 0,0.226841 -0.11764,0.340048 -0.26149,0.251148 -0.14999,-0.0927 -0.19428,0.0136 -0.10388,0.249079 0.10356,0.269851 0.007,0.41031 -0.28318,0.41031 -0.24241,0 -0.36581,0.120827 -0.2744,0.268719 0.0914,0.147881 0.27691,0.200488 0.41238,0.116787 0.32086,-0.198279 0.30872,0.168648 -0.0222,0.672827 -0.23159,0.352772 -0.29261,0.352772 -0.54727,0 -0.21804,-0.302098 -0.25323,-0.158244 -0.14777,0.601515 0.082,0.59083 0.0367,0.934976 -0.11059,0.843875 -0.1369,-0.0846 -0.24858,-0.0275 -0.24858,0.126609 0,0.154109 0.17859,0.280085 0.39687,0.280085 0.21829,0 0.39688,0.125976 0.39688,0.280088 0,0.154098 -0.1366,0.196088 -0.30335,0.09302 -0.21336,-0.131861 -0.2509,0.0204 -0.1271,0.513664 0.10409,0.414719 0.0654,0.700731 -0.0941,0.700731 -0.1483,0 -0.26924,-0.138727 -0.26924,-0.308507 0,-0.169781 -0.0765,-0.232511 -0.16999,-0.13901 -0.0935,0.0935 -0.0346,0.333928 0.13123,0.533818 0.22773,0.274379 0.1991,0.780283 -0.11782,2.064473 -0.38137,1.543679 -0.38224,1.846273 -0.009,3.275253 0.36012,1.378859 0.36319,1.601659 0.0238,1.791619 -0.2132,0.11931 -0.38759,0.32231 -0.38759,0.45114 0,0.12882 -0.12988,0.56961 -0.28834,0.97926 -0.23643,0.61132 -0.39317,3.77219 -0.22376,4.51497 0.0251,0.10914 0.0271,0.30181 0.004,0.42788 -0.023,0.12607 0.14194,0.50884 0.36586,0.8506 0.22392,0.34175 0.40669,0.78058 0.40669,0.97565 0,0.57119 3.42305,4.15203 3.82252,3.99872 0.25717,-0.0987 0.40746,0.23418 0.53951,1.19424 0.28085,2.04211 1.70786,4.71727 3.34499,6.27093 2.4538,2.3287 5.55657,4.30416 7.42903,4.72942 2.16567,0.49192 5.15789,0.32605 6.50399,-0.36068 1.38213,-0.70511 2.87776,-2.42006 3.22048,-3.69281 0.15523,-0.57656 0.49188,-1.30756 0.74827,-1.62418 0.39012,-0.48179 0.57279,-0.53085 1.12085,-0.30076 0.92789,0.38957 4.08482,0.81416 4.75372,0.63924 0.42576,-0.11134 0.86796,0.16552 1.82729,1.14462 2.01639,2.05801 2.92386,2.6634 4.77385,3.18378 3.31724,0.93308 5.81916,0.42969 8.41602,-1.69343 0.66768,-0.54584 1.55673,-1.46476 1.97559,-2.04171 l 0.76121,-1.04905 2.0619,0.078 c 2.2043,0.0835 3.94499,-0.46913 4.94025,-1.5689 0.25484,-0.28159 0.60997,-0.51211 0.78909,-0.51211 0.17915,0 0.738874,-0.42475 1.243355,-0.94413 0.760465,-0.78294 0.973455,-1.26905 1.246955,-2.84427 0.181398,-1.04497 0.453707,-2.16151 0.605128,-2.48098 0.02789,-0.0588 0.05249,-0.11969 0.0739,-0.1819 v -1.47795 c -0.16502,-0.60146 -0.51046,-1.21249 -1.00666,-1.72341 -0.497231,-0.51198 -1.093099,-0.93069 -1.324477,-0.93069 -0.688101,0 -0.796321,-0.49382 -0.457861,-2.08876 0.309271,-1.45729 0.292866,-1.56373 -0.46972,-3.05305 -0.6037,-1.17911 -0.7416,-1.71169 -0.58499,-2.257737 0.11274,-0.393052 0.28805,-1.430533 0.38965,-2.305804 0.1565,-1.348478 0.0749,-1.910467 -0.53435,-3.681945 -0.87741,-2.551259 -1.79181,-3.939835 -4.09948,-6.225975 -1.29511,-1.283031 -2.17358,-1.904844 -3.27009,-2.315104 -1.78994,-0.66969 -4.42003,-0.742553 -5.81256,-0.160713 -0.5271,0.220268 -0.95861,0.337764 -0.95861,0.260963 0,-0.0768 -0.71932,0.223671 -1.59885,0.667661 -1.59464,0.804971 -1.6012,0.805831 -2.3151,0.307991 -0.98888,-0.6896 -3.12825,-1.372527 -4.30051,-1.372527 -1.10236,0 -3.46991,0.702702 -5.35887,1.590601 l -1.26659,0.595313 -0.98081,-0.954979 c -3.01157,-2.934941 -3.22887,-3.004677 -9.95236,-3.180168 -1.89537,-0.0495 -3.16653,-0.07546 -4.09019,-0.06356 z m 8.73747,1.515671 c 0.0546,0.009 0.10687,0.05139 0.15812,0.126606 0.10914,0.16008 0.3665,0.345244 0.57205,0.411345 0.20558,0.0661 0.40307,0.322177 0.43926,0.568957 0.0522,0.355571 -0.14557,0.448551 -0.95342,0.448551 -0.56063,0 -1.10032,-0.131895 -1.19994,-0.293005 -0.12282,-0.19876 0.0206,-0.236913 0.44701,-0.119372 0.54745,0.150939 0.56669,0.134699 0.14933,-0.12609 -0.26349,-0.164632 -0.65045,-0.233878 -0.85989,-0.15348 -0.24223,0.093 -0.38034,-0.02281 -0.38034,-0.318328 0,-0.274889 0.21606,-0.480761 0.52917,-0.504362 0.29104,-0.02191 0.53078,0.101542 0.53279,0.274402 0.003,0.188521 0.10829,0.155409 0.26458,-0.08268 0.11218,-0.170878 0.21029,-0.247814 0.30128,-0.232542 z m -11.34351,0.597895 c 0.0625,7.1e-5 0.17532,0.105939 0.34211,0.31161 0.22905,0.282509 0.34827,0.376029 0.26458,0.207738 -0.11522,-0.231598 0.008,-0.231598 0.50748,0 0.80425,0.37303 0.88336,0.808233 0.10178,0.560173 -0.3315,-0.10522 -0.64217,-0.04901 -0.75705,0.136943 -0.12777,0.206729 -0.25173,0.102195 -0.36018,-0.302824 -0.16589,-0.61954 -0.20286,-0.913749 -0.0987,-0.91364 z m -0.66042,0.192238 c 0.21254,-0.02331 0.35219,0.261162 0.4682,0.879531 0.1183,0.630621 0.2834,0.864229 0.54105,0.765328 0.20397,-0.0783 0.37052,-0.01069 0.37052,0.150379 0,0.161091 -0.14882,0.290872 -0.33073,0.288872 -0.41026,-0.005 -1.04481,-0.393295 -1.01441,-0.620633 0.0718,-0.536523 -0.0222,-0.698151 -0.40669,-0.698151 -0.35158,0 -0.37002,-0.0718 -0.10025,-0.396875 0.19058,-0.229629 0.34481,-0.354452 0.47231,-0.368451 z m 5.29166,0.123505 c 0.18871,-0.0141 0.32145,0.03369 0.32145,0.129191 0,0.127301 0.17859,0.162827 0.39687,0.07906 0.21828,-0.0838 0.39688,-0.0283 0.39688,0.122991 0,0.151278 0.26789,0.358878 0.59531,0.461471 0.8345,0.261458 1.80554,1.062455 1.57872,1.302244 -0.10422,0.110202 0.0782,0.117753 0.40565,0.01704 0.37333,-0.114749 0.59532,-0.0717 0.59532,0.11524 0,0.163811 0.093,0.240532 0.20619,0.170531 0.11321,-0.07 0.48625,0.0848 0.82939,0.343649 0.41293,0.31147 0.52244,0.533342 0.3235,0.656291 -0.16531,0.102169 -0.30075,0.04721 -0.30075,-0.122473 0,-0.169709 -0.17859,-0.240379 -0.39687,-0.15658 -0.21829,0.0838 -0.39688,0.04867 -0.39688,-0.07803 0,-0.12672 -0.35719,-0.354767 -0.79375,-0.506947 -0.43656,-0.152188 -0.79375,-0.408826 -0.79375,-0.570508 0,-0.161639 -0.11906,-0.220641 -0.26458,-0.130741 -0.14552,0.0899 -0.2662,-0.0515 -0.26821,-0.314709 -0.003,-0.372139 -0.0555,-0.398465 -0.23358,-0.117305 -0.35263,0.55663 -2.16725,-0.09361 -1.97559,-0.707967 0.11245,-0.360521 0.0582,-0.347763 -0.27905,0.06615 -0.23016,0.28249 -0.42699,0.401523 -0.43717,0.264583 -0.0103,-0.136969 -0.12092,-0.01101 -0.24599,0.280085 -0.20957,0.48759 -0.22889,0.490514 -0.24598,0.03772 -0.0122,-0.322429 -0.15348,-0.439547 -0.41135,-0.340548 -0.32924,0.126352 -0.34028,0.06631 -0.0672,-0.371035 0.17928,-0.287092 0.36597,-0.401725 0.41498,-0.254765 0.049,0.14695 0.20526,0.267166 0.34726,0.267166 0.142,0 0.19286,-0.105641 0.11316,-0.234609 -0.0797,-0.128982 0.092,-0.29637 0.38137,-0.372073 0.0723,-0.01889 0.14174,-0.03054 0.20463,-0.03514 z m -2.25774,0.388091 c 0.11176,-0.005 0.2081,0.17912 0.22945,0.584459 0.0169,0.327411 0.0188,0.680548 0.003,0.78445 -0.0156,0.103899 0.12914,0.128556 0.32144,0.05478 0.19667,-0.0755 0.34983,0.0442 0.34983,0.273883 0,0.224552 -0.0101,0.399841 -0.0222,0.389642 -0.16819,-0.141841 -1.11646,-0.423903 -1.22319,-0.363802 -0.0787,0.0443 -0.0955,-0.327713 -0.0372,-0.826823 0.0665,-0.56932 0.23511,-0.889797 0.37878,-0.896586 z m 2.9404,0.08062 c -0.0401,-0.006 -0.0676,0.0905 -0.0754,0.283186 -0.0114,0.27886 0.0511,0.435165 0.13898,0.347265 0.0879,-0.0879 0.0971,-0.315946 0.0206,-0.506946 -0.0317,-0.0792 -0.0597,-0.119867 -0.0837,-0.123505 z m -7.07139,0.07131 c 0.0694,-0.0264 0.12327,0.05599 0.19222,0.235643 0.0905,0.2359 0.28443,0.354658 0.43098,0.264067 0.14655,-0.0906 0.26614,-0.03839 0.26614,0.115755 0,0.15411 -0.22965,0.280086 -0.51056,0.280086 -0.32666,0 -0.54298,0.214603 -0.60047,0.595312 -0.0842,0.557202 -0.0993,0.561518 -0.23361,0.06615 -0.0789,-0.291049 -0.003,-0.803664 0.16952,-1.139465 0.13121,-0.255799 0.21638,-0.391155 0.28578,-0.417544 z m 2.75743,0.366384 c 0.1541,0 0.20619,0.119065 0.11629,0.264583 -0.0899,0.145521 -0.2159,0.264584 -0.28009,0.264584 -0.0642,0 -0.11679,-0.119063 -0.11679,-0.264584 0,-0.145518 0.1265,-0.264583 0.28059,-0.264583 z m 24.88944,0.365871 c 0.33769,0.01871 0.8749,0.207272 1.14308,0.457854 0.15409,0.143949 0.10289,0.222919 -0.13229,0.204121 -0.77796,-0.0622 -1.30998,-0.279916 -1.30998,-0.535885 0,-0.072 0.0647,-0.111268 0.16793,-0.123507 0.0387,-0.005 0.083,-0.0046 0.13126,-0.0027 z m -24.19128,0.01291 c 0.0908,0.0273 0.10057,0.167013 -0.0419,0.397394 v 0 c -0.0959,0.155199 -0.30102,0.282151 -0.45577,0.282151 -0.17547,0 -0.15544,-0.151624 0.0532,-0.403074 0.1814,-0.21863 0.35304,-0.3038 0.4439,-0.276471 z m -4.50723,0.0083 c 0.10792,0.0232 0.11205,0.155956 -0.032,0.389126 v 0 c -0.0959,0.155194 -0.3756,0.278878 -0.62167,0.273878 -0.39277,-0.007 -0.38507,-0.0556 0.0625,-0.39429 0.27188,-0.205679 0.48379,-0.291939 0.59168,-0.268719 z m 0.18965,0.750861 c 0.043,-5.29e-4 0.0783,0.01117 0.10285,0.03566 0.098,0.098 0.003,0.288883 -0.21085,0.424265 -0.62505,0.395304 -0.86135,0.291383 -0.39584,-0.174156 0.17671,-0.1767 0.3747,-0.284401 0.50384,-0.285769 z m -1.42936,0.184994 c 0.11494,0 0.27118,0.238128 0.34727,0.529167 0.0761,0.291042 0.0441,0.529167 -0.0708,0.529167 -0.11491,0 -0.27117,-0.238125 -0.34727,-0.529167 -0.0761,-0.291039 -0.0441,-0.529167 0.0708,-0.529167 z m 35.74045,0 c 0.15407,0 0.20619,0.119065 0.11629,0.264584 -0.0899,0.14552 -0.2159,0.264583 -0.28009,0.264583 -0.0642,0 -0.11679,-0.119063 -0.11679,-0.264583 0,-0.145519 0.1265,-0.264584 0.28059,-0.264584 z m -33.16695,0.287322 c 0.12277,0.003 0.37894,0.121579 0.7126,0.374137 0.2761,0.20929 0.62188,0.306091 0.76843,0.215492 0.15121,-0.0934 0.18463,-0.0327 0.0775,0.14056 -0.26529,0.429249 -0.53496,0.382894 -1.25264,-0.214974 -0.40132,-0.33433 -0.46376,-0.519615 -0.30591,-0.515215 z m -3.07218,0.241845 c 0.34203,0 0.29765,0.991769 -0.0542,1.20923 -0.16179,0.1 -0.39878,0.0176 -0.5266,-0.182935 -0.16293,-0.25572 -0.21654,-0.157356 -0.17984,0.329695 0.033,0.437261 -0.23749,1.042685 -0.73017,1.634527 -0.82576,0.991909 -1.34496,1.262086 -1.0754,0.559654 0.0883,-0.230179 0.16071,-0.468265 0.16071,-0.529166 0,-0.0609 0.19211,-0.110588 0.42738,-0.110588 0.30504,0 0.3859,-0.160417 0.28162,-0.559139 -0.0974,-0.37256 0.071,-0.791731 0.50488,-1.256771 0.55655,-0.596418 0.69212,-0.639995 0.93226,-0.300757 0.22484,0.317632 0.25479,0.278014 0.15036,-0.198438 -0.0718,-0.327419 -0.023,-0.595312 0.10904,-0.595312 z m 5.53146,1.058333 c 0.14552,0 0.26458,0.102 0.26458,0.226862 0,0.27613 2.54585,1.625222 3.067,1.625222 0.20484,0 0.37258,0.125997 0.37258,0.280088 0,0.154148 0.11571,0.208938 0.25734,0.121438 0.14163,-0.0875 1.0146,0.143158 1.93942,0.513146 0.92482,0.36998 1.76109,0.672828 1.8588,0.672828 0.37188,0 0.15561,-0.695018 -0.35139,-1.129128 -0.50964,-0.436351 -0.71025,-0.987539 -0.35967,-0.987539 0.0931,0 0.30599,0.187116 0.47336,0.415996 0.19791,0.270669 0.77727,0.433279 1.65725,0.465088 0.86733,0.0313 1.53895,0.217051 1.87071,0.517281 0.49768,0.4504 0.53273,0.445223 0.92292,-0.134358 l 0.40618,-0.602549 0.99838,0.528651 c 0.54925,0.2907 1.23772,0.487706 1.53014,0.438216 0.68091,-0.11535 1.79041,-0.837401 1.64589,-1.071253 -0.0608,-0.0984 0.10121,-0.179316 0.36021,-0.179316 0.30795,0 0.46003,0.186754 0.43873,0.538986 -0.0341,0.56339 0.42008,1.199925 0.85627,1.199925 0.1401,0 0.47202,0.50601 0.73742,1.124479 0.26541,0.618461 0.53192,1.230217 0.59222,1.359609 0.0623,0.133569 -0.048,0.138065 -0.2553,0.01034 -0.24953,-0.15385 -0.22204,-0.006 0.0879,0.468188 0.39397,0.602401 0.4036,0.734724 0.0697,1.011825 -0.21124,0.17536 -0.31895,0.424434 -0.23926,0.553455 0.0797,0.12904 0.0277,0.234609 -0.11576,0.234609 -0.49609,0 -1.10373,1.602539 -0.81338,2.145091 0.32777,0.612468 0.36248,0.614193 0.93433,0.04237 0.43476,-0.434769 0.44984,-0.424561 0.29196,0.198437 -0.59896,2.363392 -0.85264,3.170352 -0.99631,3.170352 -0.0899,0 -0.37896,-0.23813 -0.64236,-0.52917 -0.56459,-0.62386 -1.78157,-0.69544 -2.24896,-0.13229 -0.18116,0.21829 -0.5449,0.39688 -0.80872,0.39688 -0.26384,0 -1.333,0.8135 -2.37556,1.80764 l -1.8955,1.80764 0.15192,2.62413 c 0.0835,1.44334 0.1846,2.86225 0.22479,3.15329 0.0516,0.37374 -0.17717,0.64575 -0.77825,0.92605 -1.13961,0.53145 -1.33064,1.05833 -0.38393,1.05833 0.40288,0 0.84566,0.11044 0.9839,0.24546 0.32213,0.31463 1.97094,-0.36369 1.97094,-0.8108 0,-0.17936 -0.23,-0.80983 -0.51107,-1.40147 -0.28107,-0.59165 -0.56745,-1.89086 -0.63667,-2.88664 -0.13356,-1.92164 -0.10102,-1.99258 1.43508,-3.1502 0.75191,-0.56672 1.00713,-0.58073 1.20456,-0.0662 0.0838,0.21829 0.37772,0.39688 0.65321,0.39688 0.27545,0 0.50075,0.16741 0.50072,0.37207 0,0.24173 -0.18523,0.32348 -0.52917,0.23358 -0.70246,-0.18371 -0.68513,0.36781 0.0185,0.59117 0.73838,0.23434 1.74035,-0.0428 1.92858,-0.53329 0.11104,-0.28938 -0.0267,-0.39895 -0.50022,-0.39895 -0.70115,0 -0.78806,-0.17142 -0.39844,-0.78755 0.21077,-0.3333 0.36399,-0.30422 1.04386,0.19844 0.43815,0.32393 0.90149,0.58911 1.03045,0.58911 0.444,0 0.32086,2.7818 -0.20466,4.61161 -0.51202,1.78279 -0.92241,2.38771 -1.41282,2.08462 -0.1348,-0.0833 -0.16171,0.12663 -0.0615,0.48059 0.13663,0.48245 0.11414,0.5362 -0.0977,0.23151 -0.15176,-0.21827 -0.21439,-0.59525 -0.13901,-0.83767 0.20825,-0.66992 -0.34647,-0.84143 -0.68368,-0.21136 -0.22228,0.41542 -0.21617,0.64976 0.0243,0.93948 0.25945,0.31271 0.24458,0.35724 -0.0791,0.23306 -0.26419,-0.10138 -0.45204,0.0481 -0.55499,0.44184 -0.14751,0.564 -0.18206,0.57178 -0.65114,0.14727 -0.27237,-0.24649 -0.69705,-0.44803 -0.94361,-0.44803 -0.41273,0 -0.41527,0.0507 -0.031,0.63717 0.27699,0.42274 0.32364,0.69483 0.13851,0.80925 -0.15344,0.0949 -0.27906,0.0693 -0.27906,-0.0563 0,-0.12564 -0.62508,-0.24081 -1.38906,-0.25631 -1.50442,-0.0306 -3.63646,-0.25903 -5.34181,-0.57206 -0.59076,-0.10878 -1.63989,-0.15862 -2.33111,-0.11162 -0.69122,0.047 -1.25301,-0.005 -1.24902,-0.11627 0.008,-0.21517 2.26761,-2.71508 2.45412,-2.71508 0.061,0 0.0557,0.28728 -0.0114,0.6382 -0.0862,0.45079 0.0352,0.7221 0.41341,0.92449 0.50146,0.26838 0.53253,0.21378 0.49093,-0.86093 -0.0344,-0.8891 -0.17258,-1.20765 -0.61391,-1.41593 -0.47794,-0.22555 -0.75459,-0.11012 -1.72135,0.71623 -0.63352,0.54152 -1.27093,1.00472 -1.41645,1.02991 -0.14552,0.0252 -0.53292,0.27968 -0.86145,0.56534 -0.32851,0.28566 -0.71549,0.51935 -0.8599,0.51935 -0.27784,0 -0.34033,0.31936 -0.37412,1.91513 -0.0119,0.56442 0.12081,1.04371 0.30953,1.11621 0.2054,0.0789 0.33073,-0.10306 0.33073,-0.48007 0,-0.33387 0.29766,-0.88657 0.66146,-1.22835 0.54753,-0.51438 0.66146,-0.54498 0.66146,-0.17828 0,0.24365 0.0893,0.445 0.19844,0.447 0.10914,0.002 0.59663,0.35508 1.08312,0.78393 1.16988,1.03126 3.54762,1.89799 5.25084,1.91409 1.38954,0.0131 3.2335,-0.79061 4.03852,-1.76061 0.53076,-0.63952 0.76719,-0.49689 0.96015,0.57981 0.0978,0.5457 0.35187,1.19185 0.56483,1.43609 0.48268,0.55355 0.30311,1.19084 -0.90175,3.19568 -1.00991,1.68039 -1.85137,2.33963 -2.22776,1.74561 -0.17955,-0.28323 -0.22802,-0.26746 -0.23101,0.0765 -0.004,0.46742 -0.6917,0.8531 -1.08625,0.60926 -0.13237,-0.0818 -0.2408,-0.028 -0.2408,0.11988 0,0.28017 -1.62605,0.28406 -3.70416,0.01 -1.50358,-0.19851 -4.00241,-1.32535 -5.25497,-2.36987 -2.4094,-2.0092 -4.53462,-4.07983 -4.53462,-4.41782 0,-0.22131 -0.13303,-0.2936 -0.33073,-0.17983 -0.1819,0.10466 -0.24312,0.0936 -0.13591,-0.0248 0.10721,-0.1184 -0.0316,-0.58394 -0.30851,-1.03456 -0.63934,-1.0405 -0.9603,-2.68101 -0.57155,-2.92127 0.42198,-0.26079 0.35213,-1.08821 -0.12557,-1.48466 -0.34317,-0.2848 -0.54332,-0.26747 -1.16581,0.10025 l -0.75138,0.4439 -1.00407,-1.38906 c -1.33315,-1.84468 -1.871,-3.57532 -1.9327,-6.21771 -0.0281,-1.20054 0.009,-2.18333 0.0832,-2.18333 0.0739,0 0.55999,0.28906 1.08056,0.64234 0.52057,0.35327 1.09154,0.69666 1.26865,0.76326 0.22619,0.085 0.1877,0.2285 -0.1292,0.48214 -1.1209,0.89726 -1.11021,2.49044 0.0238,3.51193 0.56287,0.50702 0.80859,0.24685 0.27286,-0.28887 -0.36928,-0.36929 -0.19582,-1.55778 0.21548,-1.47588 0.17224,0.0343 0.38936,-0.34216 0.48215,-0.83664 0.13086,-0.69748 0.0296,-1.09773 -0.45165,-1.78284 -0.34123,-0.48571 -0.71379,-0.95171 -0.82785,-1.03611 -0.11411,-0.0844 -0.1301,-0.35627 -0.0351,-0.60358 0.16092,-0.41937 0.19564,-0.41775 0.5147,0.0186 0.18814,0.25734 0.28702,0.55755 0.21963,0.66663 -0.0674,0.109 0.0549,0.12981 0.2718,0.0465 0.28814,-0.11056 0.44239,0.10318 0.57156,0.79168 0.16174,0.86214 0.24736,0.9368 1.00406,0.8754 1.15621,-0.0938 1.52054,-1.12928 0.8413,-2.39055 -0.56822,-1.05512 -0.38317,-1.89059 0.37465,-1.69241 0.35436,0.0927 0.46395,0.0223 0.36534,-0.234608 -0.0774,-0.201811 -0.009,-0.366903 0.15195,-0.366903 0.16108,0 0.293,-0.135933 0.293,-0.301792 0,-0.165849 0.19666,-0.44528 0.43717,-0.621149 0.71427,-0.522282 0.17298,-0.989513 -0.9307,-0.803053 -0.95771,0.161801 -3.18887,-0.500808 -2.84477,-0.84491 0.0872,-0.0872 0.0262,-0.318373 -0.13592,-0.513664 -0.30909,-0.372438 -0.24389,-0.410022 0.82838,-0.478523 1.16015,-0.0741 1.70641,-0.382529 2.24171,-1.265039 0.85357,-1.40721 0.89535,-1.865358 0.21913,-2.400887 -0.33491,-0.265222 -0.60875,-0.714106 -0.60875,-0.997356 0,-0.428641 0.122,-0.484794 0.7276,-0.336413 0.40018,0.098 0.76478,0.271069 0.81029,0.384988 0.10826,0.271221 1.26227,-0.883764 1.16737,-1.168403 -0.04,-0.120002 0.0471,-0.144084 0.19327,-0.05375 0.37923,0.234381 1.3348,-0.335407 1.3348,-0.795816 0,-0.213159 0.11906,-0.387573 0.26458,-0.387573 z m 25.53229,0.537435 c 0.14552,0 0.086,0.115255 -0.13229,0.256315 -0.21831,0.141081 -0.51594,0.256315 -0.66146,0.256315 -0.14552,0 -0.086,-0.115234 0.13229,-0.256315 0.21828,-0.14106 0.51594,-0.256315 0.66146,-0.256315 z m 0.90432,0.02429 c 0.0919,0.004 0.17102,0.02835 0.21497,0.07235 0.0879,0.0878 -0.0684,0.1505 -0.34726,0.13901 -0.30822,-0.0127 -0.37127,-0.0757 -0.16018,-0.160198 0.0955,-0.0382 0.20055,-0.05496 0.29247,-0.05116 z m -32.96179,0.06821 c -0.0238,-5.29e-4 -0.0545,0.0104 -0.092,0.03359 -0.14385,0.0889 -0.26199,0.273381 -0.26199,0.410311 0,0.38059 0.18997,0.297137 0.36587,-0.161232 0.0678,-0.176598 0.0596,-0.280868 -0.0119,-0.28267 z m 37.05251,1.060403 c 0.0964,0.003 0.16433,0.108376 0.16433,0.278534 0,0.464752 -0.15869,0.53339 -0.38552,0.166399 -0.0837,-0.13545 -0.0311,-0.321495 0.11681,-0.412895 0.037,-0.02289 0.0722,-0.03314 0.10438,-0.03204 z m -5.67822,2.046385 c 0.0919,0.004 0.17102,0.02835 0.21497,0.07235 0.0879,0.0879 -0.0684,0.150501 -0.34726,0.13901 -0.30822,-0.0127 -0.37127,-0.0757 -0.16018,-0.160197 0.0955,-0.0382 0.20055,-0.05496 0.29247,-0.05116 z m -33.10856,0.356568 c 0.0122,0.004 0.0259,0.01418 0.0413,0.03049 0.12607,0.132921 0.27493,0.479973 0.33073,0.771012 0.0626,0.326562 0.27519,0.499652 0.55502,0.451651 0.24939,-0.0428 0.4532,0.03811 0.4532,0.179835 0,0.14178 -0.26789,0.296117 -0.59531,0.342614 -0.37886,0.0538 -0.56909,0.241782 -0.52401,0.517282 0.0848,0.518541 -0.63653,0.862632 -0.90331,0.430982 -0.10316,-0.16696 -0.0541,-0.34816 0.10906,-0.40256 0.16306,-0.0544 0.23064,-0.271093 0.14986,-0.481624 -0.10708,-0.27903 -0.0201,-0.333963 0.32245,-0.20257 0.28244,0.108378 0.40528,0.07585 0.308,-0.08165 -0.25464,-0.41202 -0.43008,-1.620999 -0.24702,-1.555459 z m 40.90345,1.54564 c 0.46466,0.02151 0.80589,0.20152 0.75239,0.582912 -0.1194,0.85159 -0.20947,1.160843 -0.39118,1.342554 -0.24837,0.248359 0.35557,0.777714 1.81901,1.594734 0.70599,0.394139 1.44256,0.876186 1.63711,1.070737 0.19454,0.194558 0.67267,0.372425 1.06246,0.395324 0.99512,0.0585 1.18086,0.0404 1.66865,-0.160713 0.34906,-0.143931 0.4696,0.0634 0.63767,1.09503 0.22286,1.37024 0.34335,2.99258 0.22169,2.99258 -0.30128,0 -1.42264,-0.65782 -1.42264,-0.83458 0,-0.42123 -1.8229,0.016 -2.8267,0.678 -2.00168,1.32008 -2.35524,1.79111 -1.57149,2.09186 0.46297,0.17766 1.56408,-0.39201 2.72026,-1.40715 1.03595,-0.90958 1.28511,-0.94803 2.43136,-0.3762 1.13787,0.56765 1.12305,1.35186 -0.0259,1.38286 -0.47294,0.0128 -1.13686,0.0303 -1.47587,0.0393 -1.02976,0.0267 -4.13049,1.99187 -3.85249,2.44171 0.21545,0.34857 0.63201,0.25091 0.63201,-0.14831 0,-0.38196 0.98938,-0.7663 1.3689,-0.53175 0.12028,0.0743 0.2186,0.30655 0.2186,0.51625 0,0.21317 0.24982,0.38137 0.56636,0.38137 0.31137,0 0.69835,0.17673 0.8599,0.39274 0.34372,0.45954 1.37509,0.2739 1.59009,-0.28629 0.0933,-0.24327 -0.0431,-0.37104 -0.39687,-0.37104 -0.40302,0 -0.51795,-0.1452 -0.45477,-0.57464 0.17132,-1.16416 1.07556,-0.59625 1.33636,0.83923 0.0132,0.0728 0.36142,0.2957 0.77412,0.49558 0.59465,0.28798 0.72543,0.50075 0.63045,1.02474 -0.1755,0.9678 -0.47419,1.12886 -0.37,0.19947 0.059,-0.52631 -0.0214,-0.7715 -0.23876,-0.72761 -0.18031,0.0364 -0.32813,-0.0598 -0.32813,-0.21393 0,-0.15413 -0.12724,-0.20152 -0.28268,-0.10543 -0.15542,0.0961 -0.21588,0.34698 -0.13486,0.55811 0.081,0.21112 0.0522,0.32502 -0.0641,0.25322 -0.11626,-0.0719 -0.2272,0.42829 -0.24598,1.11104 -0.0188,0.68275 -0.29187,2.2533 -0.60669,3.49022 -0.3148,1.23693 -0.58531,2.44837 -0.60151,2.69235 -0.0161,0.24395 -0.11049,0.39389 -0.20928,0.33279 -0.0988,-0.0611 -0.27168,0.21578 -0.3845,0.61495 -0.29434,1.04183 -0.29625,1.23352 -0.0145,1.42989 0.31803,0.22158 -1.87348,2.86753 -2.37503,2.86753 -0.46114,0 -0.49083,-0.43739 -0.0419,-0.61857 0.20781,-0.0838 0.21995,-0.14142 0.0325,-0.15452 -0.16407,-0.0114 -0.44669,0.15793 -0.62785,0.37621 -0.23022,0.27744 -0.23913,0.39688 -0.03,0.39688 0.59446,0 -0.30888,0.98914 -1.30432,1.42832 -1.1089,0.48924 -3.55611,0.72417 -4.35425,0.41807 -0.29104,-0.11163 -1.03518,-0.35367 -1.65364,-0.53795 -0.61847,-0.18426 -1.12448,-0.42656 -1.12448,-0.53898 0,-0.11242 -0.23837,-0.28051 -0.5302,-0.37312 -1.45958,-0.46323 -3.4499,-3.02782 -5.21571,-6.72102 l -1.04748,-2.19108 0.75086,0.15038 c 0.99084,0.19815 0.96274,-0.21391 -0.0429,-0.63046 -0.43656,-0.18081 -0.8028,-0.40357 -0.81391,-0.49506 -0.0111,-0.0915 -0.0646,-0.40452 -0.11885,-0.69556 -0.15455,-0.82807 0.42016,-2.75567 1.15755,-3.88194 l 0.67127,-1.02577 0.54415,0.64182 c 0.74046,0.87277 1.22351,0.96855 1.96887,0.39016 0.34705,-0.26932 0.85307,-0.4899 1.12448,-0.4899 0.74911,0 0.59044,-0.44186 -0.30023,-0.83612 -0.43656,-0.19324 -0.79375,-0.50092 -0.79375,-0.68368 0,-0.33207 -0.65405,-0.43915 -2.36162,-0.38706 -0.99253,0.0303 -1.99948,-0.81797 -1.7482,-1.47278 0.0776,-0.2023 0.14107,-0.70531 0.14107,-1.11776 0,-0.5036 0.3325,-1.10651 1.01182,-1.83503 0.91313,-0.97925 1.10932,-1.072272 2.01332,-0.95653 0.8441,0.10808 1.12154,0.008 1.76631,-0.636654 0.70345,-0.703472 1.10916,-2.108028 0.50022,-1.73168 -0.14552,0.0899 -0.26458,0.0373 -0.26458,-0.116787 0,-0.154101 0.0937,-0.280088 0.20825,-0.280088 0.11454,0 0.22871,-0.265906 0.25321,-0.591177 0.0246,-0.32526 0.16957,-0.633195 0.32247,-0.684196 0.15293,-0.051 0.21045,-0.201774 0.12814,-0.334862 -0.19029,-0.307901 1.88555,-0.317818 2.47893,-0.01188 0.24509,0.12637 0.88302,0.308226 1.41748,0.404627 0.80862,0.145852 0.99833,0.0923 1.12964,-0.321426 0.20756,-0.65395 1.32516,-1.059987 2.09963,-1.024229 z m -8.45892,2.826184 c 0.0909,0.006 0.15658,0.0735 0.15658,0.215493 0,0.11771 -0.17444,0.445132 -0.38809,0.727604 -0.39658,0.52433 -0.53419,0.230804 -0.24495,-0.522967 0.10369,-0.27019 0.32499,-0.43038 0.47646,-0.42013 z m 14.70245,1.21543 c 0.0638,-0.0011 0.12541,0.008 0.18037,0.02946 0.32475,0.124621 0.33324,0.19548 0.0465,0.377238 -0.19413,0.123042 -0.51602,0.225377 -0.71573,0.227377 -0.28617,0.003 -0.29633,-0.0764 -0.047,-0.376721 0.13049,-0.15725 0.34436,-0.254299 0.53589,-0.25735 z m -36.6789,0.943097 c -1.5299,0.0505 -3.09467,0.888517 -3.22148,1.773537 -0.078,0.54405 -0.0282,0.57706 0.46971,0.31057 1.1526,-0.61684 2.31587,-0.56955 3.14505,0.12816 0.42995,0.36179 0.94321,0.6697 1.14049,0.6842 0.7462,0.0549 -1.00875,0.40164 -1.95647,0.38654 -0.5457,-0.009 -0.99221,0.0733 -0.99218,0.18242 0,0.10914 -0.1823,0.19843 -0.40516,0.19843 -0.46974,0 -0.78192,0.63514 -0.52038,1.05834 0.1288,0.20841 0.28361,0.20396 0.54933,-0.0165 0.51308,-0.42581 1.20515,-0.11713 0.99062,0.44183 -0.10668,0.27804 0.013,0.57959 0.31938,0.80357 0.60706,0.44388 1.76398,0.46591 2.1885,0.0413 0.44143,-0.44146 0.39677,-1.00563 -0.0796,-1.00563 -0.21828,0 -0.39687,-0.17111 -0.39687,-0.38034 0,-0.61473 1.05979,-0.3644 1.8066,0.42685 0.51774,0.54855 0.76666,0.65282 1.03145,0.43305 0.28199,-0.23403 0.24633,-0.36121 -0.18603,-0.66404 -0.82378,-0.57699 -0.63891,-0.848 0.50694,-0.74311 1.36909,0.12532 1.81301,-0.35945 1.19425,-1.3038 -0.24476,-0.37353 -0.59057,-0.67902 -0.76843,-0.67902 -0.17785,0 -0.96776,-0.45586 -1.75545,-1.01286 -1.14859,-0.812214 -1.69437,-1.022589 -2.75537,-1.062988 -0.10126,-0.004 -0.20291,-0.004 -0.30491,-5.29e-4 z m -11.59721,1.603007 c 0.0738,-0.001 0.18195,0.006 0.3266,0.016 0.32742,0.0225 0.59531,0.19406 0.59531,0.38137 0,0.42878 -0.0486,0.4259 -0.67696,-0.0408 -0.37439,-0.27808 -0.4663,-0.35328 -0.24495,-0.35657 z m 30.8157,1.81384 c -0.36497,-0.01 -0.55679,0.15887 -0.98962,0.5917 l -0.72139,0.72088 1.21955,-0.16691 c 0.78435,-0.10751 1.28495,-0.0615 1.4025,0.12867 0.10054,0.16267 0.39941,0.29559 0.66405,0.29559 0.26464,0 0.62346,0.17131 0.79735,0.38086 0.17391,0.20954 0.5756,0.42437 0.89247,0.47697 0.65031,0.10792 0.97255,0.005 0.97255,-0.30903 0,-0.38678 -2.07875,-1.59926 -3.3042,-1.92701 -0.43277,-0.11575 -0.71429,-0.18581 -0.93326,-0.19172 z m -4.77647,0.40308 c 0.20214,-0.0115 0.43074,0.0455 0.75242,0.16691 0.73576,0.27771 0.79166,0.38408 0.65887,1.24695 -0.18143,1.17883 -0.24252,1.25369 -0.46199,0.56224 -0.0966,-0.30447 -0.60606,-0.73328 -1.1317,-0.95291 -0.92784,-0.38768 -0.93943,-0.41066 -0.41238,-0.7798 0.21706,-0.15205 0.39264,-0.2319 0.59478,-0.24339 z m -25.49612,0.72295 c -0.29541,-0.0706 -0.8477,1.20691 -0.90848,2.17093 -0.0789,1.25217 0.27922,2.30727 1.18703,3.49746 0.70916,0.92976 1.09365,1.07376 1.3167,0.49248 0.0813,-0.21181 -0.38457,-0.91026 -1.09501,-1.64125 -1.18583,-1.22013 -1.22999,-1.321 -1.0754,-2.44895 0.0887,-0.64701 0.29695,-1.34037 0.46303,-1.54047 0.16578,-0.2001 0.24175,-0.42384 0.16795,-0.49764 -0.0172,-0.0172 -0.0361,-0.0279 -0.0558,-0.0326 z m 54.61838,0.17932 c 0.14552,0 0.26459,0.11906 0.26459,0.26458 0,0.14552 -0.11907,0.26458 -0.26459,0.26458 -0.14552,0 -0.26458,-0.11906 -0.26458,-0.26458 0,-0.14552 0.11906,-0.26458 0.26458,-0.26458 z m -31.02239,0.004 c 0.56697,0.003 0.63997,0.0606 0.33073,0.26044 -0.51769,0.33455 -1.05834,0.33455 -1.05834,0 0,-0.14551 0.3274,-0.26244 0.72761,-0.26044 z m -6.99133,0.26044 c -0.41121,0 -0.1979,1.32892 0.26149,1.62936 0.34618,0.2264 0.97515,-0.0186 0.97515,-0.37982 0,-0.41858 -0.82227,-1.24954 -1.23664,-1.24954 z m 24.50188,1.32395 c -0.0241,-0.003 -0.0497,-0.002 -0.078,0.002 -0.0755,0.01 -0.16815,0.0424 -0.28784,0.0884 -0.60804,0.23333 -1.4269,1.72852 -1.27175,2.32183 0.13264,0.50719 0.14486,0.50629 0.52554,-0.0372 0.21445,-0.30616 0.68345,-0.66867 1.0423,-0.80512 0.5216,-0.19833 0.61598,-0.3671 0.46974,-0.84284 -0.15764,-0.51287 -0.23217,-0.70631 -0.39997,-0.72658 z m -5.62602,0.32763 c -0.0453,0.004 -0.0798,0.0157 -0.10025,0.0362 -0.0707,0.0707 0.30749,0.57768 1.28521,1.72134 0.26366,0.30843 0.36809,0.29205 0.65833,-0.1049 0.38815,-0.53078 0.25385,-0.92294 -0.31572,-0.92294 -0.20968,0 -0.38137,-0.10503 -0.38137,-0.23358 0,-0.19614 -0.82915,-0.52632 -1.1462,-0.49609 z m 19.95744,1.00976 v 5.3e-4 c 0.22487,0.0383 0.50334,0.35685 0.50334,0.66094 0,0.2097 -0.10623,0.38137 -0.236167,0.38137 -0.268203,0 -0.633593,-0.80558 -0.449073,-0.99012 0.0262,-0.0263 0.0568,-0.0428 0.0899,-0.0506 0.029,-0.007 0.0599,-0.007 0.092,-0.002 z m -21.19974,0.0439 c -0.0817,-0.003 -0.16611,0.0167 -0.24702,0.0667 -0.22204,0.13727 -0.21727,0.28577 0.0185,0.56999 0.22141,0.26678 0.40344,0.30037 0.59479,0.10904 0.28702,-0.28703 -0.0124,-0.73199 -0.3664,-0.74569 z m -4.33462,0.90382 c -0.14441,0.007 -0.25646,0.0442 -0.30231,0.11834 -0.0821,0.13275 -0.0713,0.36704 0.0238,0.5209 0.21603,0.34957 1.60409,0.21392 1.50688,-0.14728 -0.0737,-0.27425 -0.7951,-0.51429 -1.22835,-0.49196 z m 27.793131,3.0949 c 0.05882,0.0122 0.09665,0.0623 0.09665,0.14418 0,0.14553 -0.119062,0.33797 -0.264583,0.42788 -0.145521,0.0899 -0.264583,0.0447 -0.264583,-0.10077 0,-0.14553 0.119062,-0.33849 0.264583,-0.42839 0.03641,-0.0225 0.0712,-0.0363 0.102844,-0.0424 0.02355,-0.005 0.04551,-0.005 0.06509,-5.3e-4 z m -41.271881,1.01393 c -0.44479,0.006 -0.70022,0.22656 -0.70022,0.632 0,0.25933 0.29615,0.38137 0.92605,0.38137 1.09608,0 1.30048,-0.68957 0.28008,-0.94568 -0.18788,-0.0472 -0.35766,-0.0695 -0.50591,-0.0677 z m 40.839367,0.4842 c 0.145521,0 0.264583,0.17169 0.264583,0.38138 0,0.20969 -0.119062,0.45477 -0.264583,0.54467 -0.145521,0.0899 -0.264584,-0.0817 -0.264584,-0.38137 0,-0.29963 0.119063,-0.54468 0.264584,-0.54468 z m -8.001577,0.36433 c 0.0238,0.012 0.038,0.0667 0.0419,0.16484 0.008,0.21828 -0.10129,0.57547 -0.24236,0.79375 -0.31258,0.48365 -0.31258,0.0659 0,-0.66146 0.0937,-0.21808 0.16084,-0.31716 0.2005,-0.29713 z m -0.46509,0.16484 c 0.0135,0.0137 -0.0659,0.12091 -0.23048,0.33073 -0.34565,0.44072 -0.56327,0.58105 -0.56327,0.36329 0,-0.0549 0.20836,-0.2633 0.46302,-0.46302 0.20982,-0.16456 0.31708,-0.24465 0.33073,-0.231 z m 5.03224,0.047 v 0 c 0.006,8e-4 0.01,0.004 0.0103,0.009 0.009,0.0421 0.0502,0.52296 0.092,1.06867 0.0415,0.5457 0.0641,0.99144 0.0501,0.99064 -0.014,-8e-4 -0.21434,-0.33348 -0.44492,-0.73897 -0.34872,-0.6133 -0.35941,-0.79273 -0.0656,-1.06712 0.16955,-0.15842 0.31684,-0.26539 0.35761,-0.262 z m -2.81895,0.30903 c 0.0241,0.004 0.0525,0.0444 0.0842,0.1235 0.0764,0.191 0.0672,0.41905 -0.0206,0.50695 -0.0879,0.0879 -0.15049,-0.0684 -0.13898,-0.34727 0.008,-0.19264 0.0353,-0.28925 0.0754,-0.28318 z m -10.6753,0.0584 c -0.32739,-0.007 -0.68038,0.0837 -0.986,0.27543 -0.45439,0.28508 -0.73054,0.30023 -1.23973,0.0682 -0.73789,-0.33622 -1.6121,-0.12263 -1.33479,0.32608 0.0999,0.1617 0.67333,0.51693 1.27383,0.78961 0.60053,0.27269 1.28395,0.49878 1.51876,0.50178 0.58659,0.008 1.90164,-1.34364 1.60042,-1.64486 -0.2032,-0.20317 -0.50512,-0.30888 -0.83249,-0.31626 z m -13.11704,0.90847 c 0.20969,0 0.45477,0.11906 0.54468,0.26458 0.0899,0.14552 -0.0812,0.26458 -0.38087,0.26458 -0.29962,0 -0.54518,-0.11906 -0.54518,-0.26458 0,-0.14552 0.17169,-0.26458 0.38137,-0.26458 z m -19.35178,0.41599 c -0.0593,-0.007 -0.14576,0.0662 -0.2677,0.18811 -0.43318,0.43319 -0.5714,2.51327 -0.2062,3.1042 0.3238,0.52391 0.47528,0.0414 0.55399,-1.76372 0.0486,-1.11434 0.0503,-1.51417 -0.0801,-1.52859 z m 5.96397,0.49661 c 0.14907,-0.002 0.31414,-0.002 0.48885,5.3e-4 1.16477,0.0186 2.76608,0.14565 3.02101,0.29818 0.0882,0.0527 0.83227,0.11789 1.65365,0.14469 0.82137,0.0268 1.49293,0.13106 1.49293,0.23203 0,0.10097 -0.44648,0.38069 -0.99218,0.62115 -1.05066,0.46298 -2.9517,0.52583 -4.00545,0.13281 -1.33792,-0.49898 -2.4107,-1.08951 -2.4107,-1.32757 0,-0.0633 0.30464,-0.0947 0.75189,-0.10181 z m 9.8924,0.14573 c 0.15489,0 0.12891,0.16813 -0.061,0.39688 -0.18116,0.21828 -0.37025,0.39687 -0.42066,0.39687 -0.0504,0 -0.0233,-0.17859 0.0605,-0.39687 0.0838,-0.21828 0.27337,-0.39688 0.42114,-0.39688 z m 20.52487,0.34003 c -0.075,-0.003 -0.16957,0.0333 -0.28215,0.12144 -0.18018,0.14107 -1.13131,0.22689 -2.11357,0.19069 -0.98227,-0.0362 -1.78594,0.0269 -1.78594,0.14004 0,0.22608 -5.47021,0.086 -5.85184,-0.14986 -0.13039,-0.0806 -0.30176,0.0222 -0.38087,0.22841 -0.32816,0.85522 2.68139,4.5281 3.90107,4.76096 2.30132,0.43934 3.81939,-0.11184 4.98935,-1.8123 0.43,-0.625 0.78187,-1.24171 0.78187,-1.36994 0,-0.12824 0.24871,-0.49978 0.55243,-0.82579 0.47754,-0.51257 0.51464,-1.26983 0.18965,-1.28365 z m -1.89137,1.44798 c 0.12152,0.001 0.20492,0.0337 0.24445,0.0977 0.20214,0.3271 0.22595,0.30602 -1.13483,0.99218 v 5.3e-4 c -1.50799,0.76011 -3.85199,0.76131 -5.03743,0.002 -0.93559,-0.59922 -0.93101,-1.22665 0.005,-0.72553 0.82389,0.44093 3.85948,0.36861 5.01571,-0.11938 0.39478,-0.16661 0.7044,-0.24992 0.90691,-0.24752 z m -29.77132,0.20567 c -0.0581,-0.006 -0.10178,0.0129 -0.13951,0.0506 -0.38187,0.38189 -0.10536,1.15352 0.56689,1.5813 0.40019,0.25465 0.78709,0.52573 0.8599,0.60203 0.15401,0.16163 1.27609,0.70164 1.85208,0.8914 0.21829,0.0719 0.76589,0.14044 1.21645,0.15195 1.28447,0.0327 3.54605,-1.25742 3.54605,-2.02262 0,-0.40834 -0.14427,-0.42077 -0.801,-0.0692 -0.55795,0.29862 -3.08446,0.51995 -3.31401,0.29042 -0.0805,-0.0805 -0.62309,-0.17804 -1.2061,-0.21704 -0.58304,-0.039 -1.22738,-0.22149 -1.43198,-0.40514 -0.66992,-0.60156 -0.97459,-0.83705 -1.14877,-0.8537 z m 12.82663,1.27227 c 0.0316,0.005 0.0659,0.0189 0.10232,0.0413 0.14552,0.0899 0.26458,0.2159 0.26458,0.28009 0,0.0642 -0.11906,0.11679 -0.26458,0.11679 -0.14555,0 -0.26459,-0.12598 -0.26459,-0.28009 0,-0.11556 0.0674,-0.17407 0.16227,-0.15813 z m 14.27353,0.96738 c 0.20971,0 0.38087,0.11907 0.38087,0.26459 0,0.14552 -0.24506,0.26458 -0.54467,0.26458 -0.29967,0 -0.47128,-0.11906 -0.38137,-0.26458 0.0899,-0.14552 0.33549,-0.26459 0.54517,-0.26459 z m -19.30061,2.47219 c -0.0949,-0.0159 -0.16227,0.0426 -0.16227,0.15815 0,0.15412 0.11906,0.28008 0.26458,0.28008 0.14552,0 0.26459,-0.0526 0.26459,-0.11678 0,-0.0642 -0.11907,-0.19019 -0.26459,-0.28009 -0.0364,-0.0225 -0.0707,-0.036 -0.10231,-0.0414 z m 21.28499,0.17365 c -0.1541,0 -0.28059,0.11906 -0.28059,0.26458 0,0.14552 0.0526,0.26459 0.11678,0.26459 0.0642,0 0.19019,-0.11907 0.28009,-0.26459 0.0899,-0.14552 0.0378,-0.26458 -0.11628,-0.26458 z"
       id="path6732-7" />
  </g>
</svg>
