<svg class="svg-icon" style="width: 1em; height: 1em;vertical-align: middle;fill: currentColor;overflow: hidden;" viewBox="0 0 1024 1024" version="1.1" xmlns="http://www.w3.org/2000/svg"><path d="M170.3 921.3l686.8-278c30.6-12.4 45.2-48 31.3-78C783 337.7 577.3 161.2 318.3 102c-33.2-7.6-64.8 14.2-70.2 47.8l-117.4 740c-3.6 22.3 18.6 40 39.6 31.5z" fill="#FFD71F" /><path d="M888.4 565.3c-75-162-201-297.9-360.7-384.2C656.5 267 758.6 386.9 823 526.1c13.9 30-0.6 65.6-31.3 78l-17.4 7C658.2 393.5 488.7 264.2 240.6 207.5l-13 91.2C438.2 346.5 569.2 456.2 685 647.4l-551.2 223-3.1 19.4c-3.5 22.3 18.6 40 39.6 31.5l686.8-278c30.6-12.4 45.1-48 31.3-78z" fill="#FDA106" /><path d="M545.5 266.1c-2.6 0-5.2-0.8-7.4-2.6-56.1-44-131.3-71.6-132-71.9-6.2-2.3-9.4-9.1-7.2-15.4 2.3-6.2 9.1-9.4 15.4-7.2 3.2 1.2 79.5 29.1 138.7 75.5 5.2 4.1 6.1 11.6 2 16.9-2.4 3.1-5.9 4.7-9.5 4.7z" fill="#FFFFFF" /><path d="M367.7 165.8m-15.7 0a15.7 15.7 0 1 0 31.4 0 15.7 15.7 0 1 0-31.4 0Z" fill="#FFFFFF" /><path d="M295.8 348c0-40.5 19.8-76.3 50.2-98.4 20-14.6 66.3 24.6 84.4 35.2 35.9 21.1 108.5 18.5 108.5 63.2 0 67.1-54.4 121.6-121.6 121.6S295.8 415.2 295.8 348z" fill="#FDA106" /><path d="M359.4 320m-18.2 0a18.2 18.2 0 1 0 36.4 0 18.2 18.2 0 1 0-36.4 0Z" fill="#FF6700" /><path d="M462.9 368.5m-18.2 0a18.2 18.2 0 1 0 36.4 0 18.2 18.2 0 1 0-36.4 0Z" fill="#FF6700" /><path d="M379.48896 396.48396a9.1 9.1 0 1 0 11.91244-13.75986 9.1 9.1 0 1 0-11.91244 13.75986Z" fill="#FF6700" /><path d="M444.956913 315.976671a9.1 9.1 0 1 0 11.91244-13.759861 9.1 9.1 0 1 0-11.91244 13.759861Z" fill="#FF6700" /><path d="M489.2 789.1c-10.5-9.5-19.6-21-26.5-34.3-30.9-59.6-7.6-133 52-163.8 59.6-30.9 133-7.6 163.8 52 10.8 20.8 14.9 43.3 13.3 65l-202.6 81.1z" fill="#FDA106" /><path d="M551.832894 657.365597a18.2 18.2 0 1 0 32.322325-16.739991 18.2 18.2 0 1 0-32.322325 16.739991Z" fill="#FF6700" /><path d="M620.171636 716.703954a9.1 9.1 0 1 0 4.249632-17.69691 9.1 9.1 0 1 0-4.249632 17.69691Z" fill="#FF6700" /><path d="M518.66405 695.75633a9.1 9.1 0 1 0 4.249632-17.69691 9.1 9.1 0 1 0-4.249632 17.69691Z" fill="#FF6700" /><path d="M156.5 731.4c36.2 13.5 78.1 9.5 112.1-14.2 55-38.4 68.5-114.2 30.1-169.3-24-34.4-62.6-52.6-101.6-52l-40.6 235.5z" fill="#FDA106" /><path d="M233.079813 618.734027a18.2 18.2 0 1 0 29.844439-20.839133 18.2 18.2 0 1 0-29.844439 20.839133Z" fill="#FF6700" /><path d="M195.87699 678.900776a9.1 9.1 0 1 0 1.889149-18.101688 9.1 9.1 0 1 0-1.889149 18.101688Z" fill="#FF6700" /><path d="M203.192744 575.371281a9.1 9.1 0 1 0 1.88915-18.101688 9.1 9.1 0 1 0-1.88915 18.101688Z" fill="#FF6700" /><path d="M478.3 176c4.2 2 5.6 2.7 8 3.9l4.9 2.4c2.6 1.3 5.3 1.9 8 1.9 6.6 0 13-3.6 16.1-10 4.5-8.9 0.8-19.7-8.1-24.1l-4.6-2.3c-2.7-1.4-4.3-2.2-9.1-4.5-9.1-4.2-19.7-0.3-24 8.7-4.1 9.1-0.2 19.8 8.8 24zM904.7 557.8c-77.2-166.7-187.4-289-337.1-373.8-8.7-4.9-19.6-1.9-24.5 6.8-4.9 8.6-1.9 19.6 6.8 24.5 142.9 81 248.3 198 322.2 357.7 4.5 9.8 4.8 20.8 0.8 31-4.1 10.4-12.1 18.5-22.5 22.7L382.6 816.4c-9.2 3.8-13.6 14.3-9.9 23.5 2.8 7 9.6 11.2 16.7 11.2 2.3 0 4.5-0.4 6.8-1.3L863.8 660c19.3-7.8 34.8-23.4 42.5-42.8 7.7-19.5 7.1-40.6-1.6-59.4z" fill="#662F0A" /><path d="M306.7 846.9l-143.2 57.7c-5.4 2.1-9.5-0.4-11-1.6-1.5-1.2-4.9-4.6-4-10.4l104.9-661.4c129.3 32.3 241.3 92.2 341.5 183.2 3.5 3.1 7.8 4.7 12.1 4.7 4.9 0 9.8-2 13.3-5.9 6.7-7.4 6.1-18.8-1.2-25.4-104-94.5-225.1-159-360-192.3l6.8-42.8c1.8-11.4 7.9-21.2 17.2-27.4 9.2-6.2 20.3-8.2 31.2-5.6 42.4 9.7 70.1 18.1 106.1 32.3 9.2 3.7 19.7-0.9 23.3-10.1 3.7-9.2-0.9-19.7-10.1-23.3-37.9-15-67-23.9-111.3-34-20.8-4.7-41.9-0.9-59.4 10.9-17.6 11.9-29.2 30.2-32.6 51.6L112.9 886.9c-2.7 17 3.7 33.5 17.2 44.2 8.6 6.8 18.8 10.3 29.1 10.3 6 0 12-1.1 17.8-3.5l143.2-57.7c9.2-3.7 13.7-14.2 10-23.4-3.8-9.1-14.3-13.6-23.5-9.9zM766.8 616.1c-6.2 0-12.2-3.2-15.6-8.9-33-56.4-62-96-100-136.8-6.8-7.3-6.4-18.7 0.9-25.4 7.2-6.8 18.7-6.4 25.4 0.9 39.9 42.8 70.2 84.3 104.7 143.2 5 8.6 2.1 19.6-6.4 24.6-2.8 1.7-5.9 2.4-9 2.4z" fill="#662F0A" /></svg>